<svg width="287" height="275" viewBox="0 0 287 275" fill="none" xmlns="http://www.w3.org/2000/svg">
<path d="M115.334 63.1799L109.999 102.281L171.656 110.694L176.992 71.5931L115.334 63.1799Z" fill="#EBEBEB"/>
<path d="M112.997 63.1602C115.163 65.8931 117.39 68.5099 119.577 71.195C121.763 73.8801 124.018 76.4764 126.259 79.0864C128.589 81.8193 130.939 84.5523 133.282 87.2237C133.357 87.3057 133.419 87.3945 133.494 87.4833C135.576 89.861 137.664 92.2364 139.759 94.6095L140.067 94.9511L140.449 94.7051C143.1 92.9788 145.747 91.2434 148.389 89.4989C148.483 89.4445 148.574 89.3852 148.662 89.3213C151.664 87.3535 154.652 85.3653 157.626 83.3566C160.468 81.4435 163.324 79.4963 166.16 77.5491C168.995 75.6019 171.837 73.6137 174.652 71.5708C171.728 73.2515 168.831 75.0348 165.927 76.7702C163.024 78.5056 160.127 80.3162 157.237 82.1336C154.021 84.1332 150.805 86.167 147.589 88.2349C145.18 89.7654 142.77 91.3049 140.361 92.8536C138.468 90.7219 136.562 88.5765 134.649 86.4653C132.107 83.6322 129.554 80.8127 126.99 78.0069C124.685 75.4926 122.373 72.9874 120.055 70.4913C117.67 68.059 115.361 65.5651 112.997 63.1602Z" fill="white"/>
<path d="M133.001 89.1172C133.026 89.1407 133.049 89.1658 133.07 89.1923L133.931 90.1489C135.297 91.6657 136.711 93.1278 138.153 94.5626C139.916 96.3253 141.726 98.0402 143.551 99.7415C145.375 101.443 147.233 103.083 149.139 104.695C151.046 106.307 152.966 107.906 154.974 109.396C153.328 107.503 151.558 105.713 149.83 103.93C148.101 102.146 146.249 100.452 144.439 98.7576C142.628 97.0632 140.743 95.403 138.843 93.7837C137.333 92.4924 135.789 91.2216 134.197 90.0054C133.833 89.7184 133.464 89.4383 133.09 89.165L133.001 89.1172Z" fill="white"/>
<path d="M130.003 101.035C132.346 100.133 134.635 99.1149 136.89 98.0696C139.145 97.0242 141.379 95.9037 143.606 94.7832C145.833 93.6627 148.027 92.4739 150.193 91.2441C151.962 90.2465 153.711 89.1944 155.426 88.1285C155.802 87.8962 156.164 87.6639 156.526 87.4453L156.608 87.3906C156.575 87.3993 156.539 87.3993 156.506 87.3906L155.207 87.9167C153.356 88.6614 151.539 89.4813 149.742 90.3149C147.48 91.3671 145.253 92.4739 143.032 93.6081C140.812 94.7422 138.619 95.9174 136.446 97.1541C134.273 98.3907 132.1 99.6479 130.003 101.035Z" fill="white"/>
<path d="M164.992 6.59609L113.999 19.5371L122.206 51.8744L173.198 38.9334L164.992 6.59609Z" fill="#EBEBEB"/>
<path d="M117.999 19.5225C120.561 20.971 123.137 22.3238 125.706 23.7313C128.275 25.1387 130.858 26.4642 133.44 27.8307C136.132 29.2381 138.831 30.6114 141.53 31.9847L141.776 32.1214L148.943 35.722L149.291 35.8929L149.517 35.5786C151.047 33.3854 152.564 31.1854 154.088 28.9853C154.144 28.9107 154.196 28.8331 154.245 28.753C155.976 26.2661 157.688 23.7609 159.383 21.2374C161.009 18.8393 162.628 16.407 164.234 13.9815C165.839 11.556 167.438 9.09635 169.016 6.60938C167.253 8.85039 165.552 11.1666 163.824 13.4417C162.095 15.7169 160.407 18.0604 158.713 20.3971C156.827 22.9888 154.948 25.6033 153.076 28.2406C151.678 30.2038 150.277 32.1738 148.874 34.1506C146.688 33.0574 144.515 31.9984 142.35 30.9462C139.453 29.5251 136.556 28.1222 133.659 26.7375C131.062 25.5008 128.459 24.271 125.856 23.0685C123.253 21.866 120.623 20.6567 117.999 19.5225Z" fill="white"/>
<path d="M131.997 28.959C132.02 28.9752 132.045 28.989 132.072 29L133.049 29.4782C134.602 30.2298 136.171 30.9358 137.756 31.5963C139.697 32.4298 141.658 33.195 143.625 33.9466C145.593 34.6982 147.574 35.4019 149.576 36.0646C151.578 36.7274 153.594 37.3696 155.643 37.9025C153.751 36.9392 151.824 36.0851 149.891 35.2584C147.957 34.4317 145.976 33.6665 144.015 32.9149C142.054 32.1634 140.059 31.4528 138.057 30.7901C136.465 30.2571 134.853 29.7447 133.22 29.2938C132.844 29.1845 132.468 29.0888 132.085 28.9863L131.997 28.959Z" fill="white"/>
<path d="M135.001 50.8279C136.552 49.3862 138.021 47.8626 139.456 46.3185C140.89 44.7744 142.298 43.203 143.685 41.6247C145.072 40.0464 146.418 38.4066 147.723 36.76C148.796 35.3936 149.848 34.0271 150.845 32.6606L151.481 31.7656C151.481 31.7656 151.481 31.7178 151.528 31.6973L151.46 31.7588C151.173 32.032 150.886 32.2985 150.606 32.5786C149.39 33.747 148.222 34.9631 147.067 36.1998C145.625 37.7371 144.231 39.3153 142.851 40.9005C141.471 42.4856 140.118 44.1117 138.813 45.7651C137.508 47.4185 136.203 49.0515 135.001 50.8279Z" fill="white"/>
<path d="M167.248 146.828L114.997 152.957L118.883 186.092L171.134 179.963L167.248 146.828Z" fill="#EBEBEB"/>
<path d="M117.003 152.974C119.354 154.744 121.731 156.425 124.089 158.167C126.446 159.909 128.837 161.549 131.222 163.216C133.606 164.883 136.202 166.68 138.696 168.395L138.922 168.559C141.122 170.067 143.331 171.572 145.549 173.075L145.877 173.287L146.137 173.007C147.959 171.035 149.758 169.055 151.534 167.069C151.603 167.006 151.667 166.938 151.725 166.865C153.762 164.623 155.788 162.364 157.806 160.087C159.733 157.928 161.653 155.728 163.566 153.535C165.479 151.341 167.385 149.114 169.257 146.846C167.208 148.841 165.226 150.945 163.211 152.947C161.195 154.949 159.214 157.046 157.226 159.171C155.016 161.485 152.814 163.829 150.619 166.202C148.972 167.965 147.332 169.741 145.686 171.511C143.677 170.144 141.668 168.812 139.66 167.486C136.981 165.696 134.294 163.924 131.597 162.171C129.192 160.599 126.776 159.046 124.348 157.511C121.868 156.001 119.449 154.443 117.003 152.974Z" fill="white"/>
<path d="M132.001 166.988L132.069 167.036C132.37 167.241 132.677 167.446 132.978 167.637C134.42 168.594 135.882 169.496 137.371 170.37C139.182 171.443 141.027 172.461 142.878 173.472C144.73 174.483 146.602 175.426 148.501 176.349C150.401 177.271 152.307 178.173 154.268 178.965C152.525 177.763 150.722 176.663 148.911 175.597C147.1 174.531 145.242 173.5 143.397 172.495C141.553 171.491 139.667 170.527 137.774 169.605C136.264 168.867 134.727 168.15 133.169 167.487C132.814 167.332 132.452 167.182 132.083 167.036L132.001 166.988Z" fill="white"/>
<path d="M134 185.04C135.729 183.81 137.417 182.492 139.009 181.159C140.601 179.827 142.233 178.426 143.791 177.06C145.349 175.693 146.92 174.238 148.437 172.769C149.674 171.58 150.89 170.371 152.065 169.114L152.817 168.308C152.837 168.289 152.855 168.268 152.871 168.246C152.85 168.267 152.824 168.283 152.796 168.294L151.847 168.977C150.48 169.982 149.168 171.027 147.857 172.1C146.224 173.466 144.638 174.832 143.074 176.199C141.509 177.565 139.945 179.021 138.428 180.49C136.911 181.959 135.422 183.462 134 185.04Z" fill="white"/>
<path d="M152.43 7.98702C147.176 8.08951 139.524 8.29448 134.338 8.29448H134.038V7.98702L133.997 0.341618V0H134.338C139.756 0 147.279 0.0546585 152.622 0.157144C152.622 2.48015 152.471 5.62303 152.43 7.98702ZM152.43 7.98702C152.362 5.75284 152.294 2.52114 152.246 0.341618L152.43 0.532923C147.204 0.621744 139.647 0.669571 134.338 0.683236L134.68 0.341618L134.646 7.98702L134.338 7.6864C139.456 7.6864 147.245 7.88454 152.43 7.98702Z" fill="#EBEBEB"/>
<path d="M134.191 185.786C139.445 185.683 147.098 185.479 152.283 185.479H152.584V185.786L152.625 193.431V193.773H152.283C146.865 193.773 139.343 193.718 134 193.616C134 191.293 134.15 188.15 134.191 185.786ZM134.191 185.786C134.26 188.02 134.328 191.252 134.376 193.431L134.191 193.24C139.418 193.151 146.975 193.103 152.283 193.09L151.942 193.431L151.976 185.786L152.283 186.087C147.166 186.087 139.377 185.888 134.191 185.786Z" fill="#EBEBEB"/>
<path d="M134.216 185.786C139.47 185.683 147.122 185.479 152.308 185.479H152.615V185.786V193.431V193.773H152.274C146.862 193.773 139.333 193.718 133.997 193.616C133.997 191.293 134.141 188.15 134.182 185.786H134.216ZM134.216 185.786C134.284 188.02 134.359 191.252 134.407 193.431L134.216 193.24C139.449 193.151 146.999 193.103 152.308 193.09L151.966 193.431L152.007 185.786L152.308 186.087C147.197 186.087 139.401 185.888 134.216 185.786Z" fill="#EBEBEB"/>
<path d="M134.226 176.13C139.481 176.027 147.133 175.822 152.319 175.822H152.626V176.13V183.775V184.117H152.278C146.866 184.117 139.337 184.062 134.001 183.96C134.001 181.637 134.144 178.494 134.185 176.13H134.226ZM134.226 176.13C134.295 178.364 134.37 181.596 134.418 183.775L134.226 183.584C139.46 183.495 147.01 183.447 152.319 183.434L151.984 183.775V176.13L152.284 176.43C147.174 176.43 139.378 176.232 134.192 176.13H134.226Z" fill="#EBEBEB"/>
<path d="M0 273.887C91.9362 273.47 195.064 273.47 287 273.887C195.064 274.31 91.9362 274.304 0 273.887Z" fill="#263238"/>
<path d="M108.32 116.384C111.323 120.057 114.737 123.374 118.495 126.27C114.485 114.111 120.801 90.031 120.818 93.6684C120.895 111.05 127.322 131.493 131.086 133.257C131.086 133.257 131.086 133.257 131.154 133.257C141.49 136.987 151.784 136.241 160.831 133.511C160.831 133.511 160.831 133.511 160.831 133.452C155.294 119.478 161.068 94.8555 161.288 96.4834C163.773 113.916 174.168 126.075 176.33 126.524C186.013 120.632 191.931 113.933 190.956 112.907C183.902 105.446 180.035 89.3526 177.051 72.5812C174.083 56.0472 174.075 40.9377 168.199 25.4636C162.806 11.3037 147.129 5.3939 136.572 9.70122C108.838 21.0291 104.072 111.237 108.32 116.384Z" fill="#263238"/>
<path d="M138.427 9.08008C136.123 9.68145 133.976 10.7749 132.135 12.2851C130.261 13.7523 128.524 15.387 126.946 17.169C123.879 20.8039 121.207 24.7547 118.976 28.9548C114.372 37.2896 111.345 46.4045 109.132 55.6126C107.057 64.8673 105.775 74.2819 105.299 83.7543C105.147 86.12 105.13 88.4856 105.045 90.8512L105.002 97.9481L105.24 105.028L105.681 112.1V105.02L105.808 97.9481L106.071 90.8851C106.232 88.5365 106.317 86.1793 106.537 83.8391C107.202 74.4558 108.591 65.1379 110.692 55.9688C112.689 46.7917 115.822 37.8994 120.019 29.4974C122.111 25.2965 124.625 21.3192 127.523 17.6269C128.99 15.7863 130.621 14.0835 132.398 12.5395C133.297 11.7876 134.249 11.1019 135.247 10.4876C136.231 9.863 137.303 9.38863 138.427 9.08008Z" fill="#263238"/>
<path d="M192.485 110.648C190.652 106.994 189.005 103.25 187.551 99.4303C186.041 95.6317 184.676 91.7992 183.498 87.8819C182.319 83.9646 181.259 80.0473 180.445 76.0707C179.631 72.0941 178.953 68.0326 178.207 64.0136C176.621 55.9756 175.044 47.9036 172.992 39.9757C171.941 36.0076 170.822 32.0564 169.44 28.1815C168.743 26.2448 167.939 24.3482 167.032 22.5006C166.198 20.6128 164.983 18.9182 163.462 17.5234C164.844 19.0226 165.926 20.7725 166.65 22.6787C167.439 24.5569 168.126 26.4758 168.71 28.4274C169.931 32.3192 170.915 36.2874 171.814 40.2979C173.611 48.2682 175.205 56.2893 176.655 64.3358C177.452 68.3548 178.173 72.3654 179.046 76.4014C179.915 80.4187 181.017 84.3822 182.345 88.2719C184.934 96.0642 188.333 103.564 192.485 110.648Z" fill="#263238"/>
<path d="M211.156 274.613H144.816C144.251 272.403 143.686 270.187 143.121 267.966C142.753 266.507 142.383 265.052 142.01 263.599C142.01 263.506 141.968 263.421 141.942 263.328L140.492 257.63C140.441 257.443 140.39 257.257 140.348 257.07C139.983 255.62 139.61 254.17 139.254 252.737C138.327 249.137 137.417 245.573 136.524 242.045C136.185 240.706 135.846 239.358 135.498 238.035C135.489 237.972 135.475 237.909 135.456 237.848C135.244 237 135.023 236.152 134.811 235.305C133.429 229.895 132.098 224.646 130.826 219.627C130.674 219.033 130.521 218.465 130.368 217.889C129.249 213.471 128.181 209.266 127.172 205.314L126.748 203.619C126.502 202.644 126.265 201.694 126.019 200.761C125.798 199.913 125.586 199.082 125.383 198.268C124.772 195.869 124.187 193.613 123.687 191.485C123.602 191.138 123.509 190.807 123.433 190.476C122.669 187.517 122 184.863 121.415 182.574C121.304 182.167 121.211 181.777 121.109 181.395C120.897 180.547 120.694 179.767 120.516 179.047C120.423 178.682 120.338 178.334 120.244 178.004L118.998 173.111H182.2C182.2 173.111 197.284 225.104 211.156 274.613Z" fill="#37474F"/>
<path d="M155.316 274.605H153.451C152.32 270.156 151.213 265.708 150.127 261.259L148.855 256.172C147.906 252.333 146.95 248.484 145.99 244.623C145.99 244.454 145.913 244.276 145.871 244.106C141.326 225.698 136.866 207.248 132.83 188.721C132.779 188.501 132.728 188.281 132.686 188.06C132.686 188.035 132.696 188.012 132.713 187.994C132.731 187.977 132.755 187.967 132.779 187.967C132.804 187.967 132.828 187.977 132.845 187.994C132.863 188.012 132.873 188.035 132.873 188.06L132.932 188.281C138.019 206.434 142.776 224.74 147.346 243.038C147.439 243.351 147.516 243.674 147.592 243.987C147.974 245.497 148.347 246.989 148.728 248.49C149.254 250.618 149.797 252.729 150.331 254.874C152.015 261.437 153.677 268.014 155.316 274.605Z" fill="#263238"/>
<path d="M180.148 173.148L171.169 218.087L170.762 220.096L170.126 223.293L169.109 228.38L168.168 233.12V233.332L167.99 234.18L159.943 274.506H144.816C144.251 272.295 143.686 270.08 143.121 267.858C142.753 266.4 142.383 264.944 142.01 263.491C142.01 263.398 141.968 263.313 141.942 263.22C141.45 261.321 140.976 259.422 140.492 257.522C140.441 257.336 140.39 257.149 140.348 256.963C139.983 255.513 139.61 254.063 139.254 252.63C138.327 249.029 137.417 245.465 136.524 241.938C136.185 240.598 135.846 239.25 135.498 237.927C135.489 237.864 135.475 237.802 135.456 237.741C135.244 236.893 135.023 236.045 134.811 235.197C133.429 229.788 132.098 224.539 130.826 219.52L130.368 217.781C129.249 213.364 128.181 209.158 127.172 205.207C127.028 204.639 126.892 204.079 126.748 203.511C126.502 202.536 126.265 201.586 126.019 200.654C125.798 199.806 125.586 198.975 125.383 198.161C124.772 195.761 124.187 193.506 123.687 191.378C123.602 191.03 123.509 190.7 123.433 190.369C122.669 187.41 122 184.756 121.415 182.466C121.304 182.059 121.211 181.669 121.109 181.288C120.897 180.44 120.694 179.66 120.516 178.939C120.423 178.575 120.338 178.227 120.244 177.896L118.998 173.004L180.148 173.148Z" fill="#263238"/>
<path d="M180.17 173.121C180.17 173.477 179.907 177.225 179.322 182.948C178.115 194.988 176.133 206.937 173.387 218.721C172.692 221.595 171.929 224.436 171.098 227.2C170.538 229.116 169.928 231.015 169.275 232.813L169.224 232.974L168.122 233.39C162.16 235.851 156.397 238.768 150.884 242.114C150.884 242.114 150.884 242.242 150.884 242.471C150.842 243.725 150.664 248.228 150.409 254.824C150.324 256.792 150.248 258.945 150.155 261.251C150.002 265.279 149.824 269.79 149.646 274.597H86.1216C86.9695 263.922 87.7665 253.086 88.5805 242.581C88.5805 242.581 82.6452 225.954 83.2896 217.551C84.8922 197.201 94.0155 173.13 94.0155 173.13L180.17 173.121Z" fill="#37474F"/>
<path d="M158.487 217.789L158.563 212.702C158.614 209.599 158.826 206.495 158.945 203.375C159.216 196.346 159.53 189.292 160.123 182.28C160.123 182.11 160.42 182.11 160.428 182.28C160.53 185.069 160.589 187.85 160.581 190.64C160.572 193.429 160.666 196.219 160.657 199C160.657 204.528 160.657 210.023 160.428 215.585C160.352 217.713 159.58 221.622 162.65 221.859C165.092 222.046 166.508 219.477 166.94 217.433C167.34 214.884 167.533 212.306 167.517 209.726C167.624 206.9 167.684 204.093 167.695 201.306C167.695 195.193 167.839 189.097 168 182.992C168 182.814 168.28 182.831 168.305 182.992C169.007 189.149 169.401 195.338 169.484 201.535C169.484 204.503 169.484 207.471 169.357 210.447C169.263 213.219 169.314 216.178 168.458 218.849C167.788 220.944 166.27 222.953 164.049 223.504C164.004 223.5 163.958 223.5 163.913 223.504C163.943 223.52 163.969 223.543 163.988 223.571C164.007 223.599 164.019 223.632 164.023 223.665C164.117 224.64 164.278 225.616 164.303 226.599C164.329 227.583 164.303 228.558 164.218 229.524C164.176 230.518 164.057 231.508 163.862 232.483C163.776 232.951 163.66 233.413 163.515 233.866C163.362 234.34 163.108 234.713 162.913 235.18C162.896 235.215 162.868 235.245 162.834 235.263C162.799 235.281 162.759 235.288 162.72 235.281C162.682 235.274 162.646 235.255 162.62 235.226C162.593 235.197 162.577 235.16 162.574 235.12C162.574 234.959 162.574 234.798 162.523 234.646C162.527 234.618 162.527 234.589 162.523 234.561C162.486 234.28 162.467 233.996 162.463 233.713C162.463 233.238 162.514 232.763 162.548 232.288C162.624 231.339 162.752 230.381 162.879 229.44C163.006 228.498 163.074 227.54 163.184 226.591C163.294 225.641 163.481 224.649 163.566 223.665C163.575 223.629 163.596 223.596 163.625 223.572C162.75 223.735 161.845 223.626 161.034 223.259C160.223 222.892 159.544 222.285 159.089 221.52C158.573 220.348 158.366 219.064 158.487 217.789Z" fill="#263238"/>
<path d="M145.475 244.42C147.469 242.894 149.568 241.511 151.758 240.282C154.061 238.887 156.455 237.647 158.922 236.568C163.755 234.474 168.741 233.041 173.727 231.388C173.871 231.337 173.973 231.591 173.828 231.642C168.995 233.567 164.366 236.119 159.702 238.425C157.405 239.553 155.081 240.621 152.741 241.656C150.401 242.69 148.061 243.894 145.661 244.776C145.475 244.818 145.331 244.538 145.475 244.42Z" fill="#263238"/>
<path d="M107.765 202.32C111.156 202.32 121.204 202.447 126.418 197.563C128.623 195.494 129.81 192.475 130.768 189.72C131.861 186.608 132.745 183.427 133.413 180.198C133.413 180.037 133.676 180.096 133.685 180.24C133.761 183.902 133.289 187.554 132.286 191.076C131.438 194.053 130.361 197.385 127.953 199.479C125.545 201.573 121.967 202.455 118.719 202.871C115.074 203.295 111.389 203.243 107.756 202.718C107.703 202.717 107.653 202.695 107.616 202.657C107.58 202.619 107.56 202.567 107.561 202.515C107.562 202.462 107.584 202.411 107.622 202.375C107.661 202.338 107.712 202.318 107.765 202.32Z" fill="#263238"/>
<path d="M189.169 201.841C187.643 201.943 183.124 202.418 180.419 197.737C179.274 195.745 178.519 192.777 177.875 190.064C177.137 186.994 176.527 183.857 175.967 180.652C175.967 180.499 175.84 180.559 175.849 180.703C176.086 184.312 176.565 187.901 177.281 191.446C177.875 194.388 178.63 197.669 179.868 199.679C180.331 200.483 180.968 201.174 181.732 201.701C182.496 202.227 183.369 202.576 184.285 202.723C185.943 203.028 187.653 202.848 189.211 202.206C189.305 202.163 189.279 201.833 189.169 201.841Z" fill="#263238"/>
<path d="M103.188 178.489C103.103 178.803 94.8364 209.963 95.2179 217.492C95.5995 225.022 100.017 240.259 100.034 240.386C100.051 240.513 99.2454 253.859 98.0499 274.59H96.4389L98.4145 240.572C98.228 239.445 93.9715 224.971 93.5984 217.594C93.1914 209.777 101.23 179.337 101.611 178.048C101.705 177.89 101.848 177.766 102.019 177.696C102.189 177.626 102.378 177.614 102.556 177.661C102.735 177.708 102.893 177.812 103.007 177.956C103.121 178.101 103.184 178.279 103.188 178.464V178.489Z" fill="#263238"/>
<path d="M159.496 82.8617C192.081 111.58 222.35 143.062 224.869 159.317C228.362 181.786 214.592 188.187 208.394 188.315C191.504 188.671 160.064 120.576 149.092 94.5627C138.451 69.3123 152.34 76.5957 159.496 82.8617Z" fill="#009247"/>
<path d="M181.816 173.125L177.271 144.568C177.271 144.568 188.582 132.867 182.732 120.607C179.781 114.392 159.695 84.1472 148.969 76.5161C138.904 69.3768 126.974 75.3036 122.506 83.0279C111.229 102.521 100.52 124.939 93.9995 173.151L181.816 173.125Z" fill="#009247"/>
<path d="M163.887 140.865C159.309 141.36 154.774 142.196 150.321 143.366C148.116 143.976 145.962 144.689 143.809 145.443C142.74 145.816 141.655 146.155 140.57 146.495C139.445 146.877 138.277 147.122 137.093 147.224C137.077 147.229 137.062 147.24 137.051 147.255C137.041 147.269 137.035 147.286 137.035 147.304C137.035 147.322 137.041 147.34 137.051 147.354C137.062 147.369 137.077 147.379 137.093 147.385C138.226 147.42 139.359 147.378 140.485 147.258C141.565 147.107 142.633 146.883 143.682 146.588C145.92 145.986 148.125 145.291 150.363 144.672C154.857 143.417 159.359 142.128 163.929 141.238C164.167 141.195 164.099 140.839 163.887 140.865Z" fill="#263238"/>
<path d="M175.265 144.705C171.493 144.385 167.705 144.278 163.92 144.382C162.021 144.442 160.147 144.611 158.265 144.832C157.366 144.942 156.467 145.061 155.569 145.196C154.67 145.332 153.618 145.62 152.635 145.748C152.533 145.748 152.533 145.926 152.635 145.909C153.568 145.815 154.517 145.909 155.458 145.832L158.282 145.705C160.173 145.62 162.064 145.553 163.946 145.451C167.727 145.247 171.484 145.086 175.265 145.018C175.301 145.01 175.332 144.99 175.355 144.962C175.377 144.933 175.39 144.898 175.39 144.862C175.39 144.825 175.377 144.79 175.355 144.761C175.332 144.733 175.301 144.713 175.265 144.705Z" fill="#263238"/>
<path d="M121.408 80.0695C91.0365 103.895 61.2075 145.078 61.004 168.107C60.7836 190.839 68.7029 188.634 70.9499 188.456C84.6858 187.557 117.033 124.279 126.911 98.4858C136.67 72.9133 128.87 74.1766 121.408 80.0695Z" fill="#009247"/>
<path d="M89.1714 170.723C90.7654 167.857 92.4019 165.025 93.945 162.143L98.6763 153.536C101.797 147.788 104.968 142.064 108.003 136.265C111.039 130.465 114.167 124.733 117.152 118.917C118.661 116.017 120.131 113.097 121.561 110.158C123.045 107.241 124.393 104.265 125.801 101.289C123.636 107.481 121.128 113.547 118.288 119.459C115.507 125.395 112.48 131.22 109.445 137.028C106.409 142.836 103.128 148.517 99.7786 154.147C96.4294 159.777 92.953 165.365 89.1714 170.723Z" fill="#263238"/>
<path d="M122.587 108.911C123.148 107.88 123.774 106.886 124.461 105.935C124.8 105.468 125.123 104.994 125.487 104.544C125.852 104.095 126.191 103.611 126.598 103.162C126.326 104.329 125.818 105.429 125.106 106.393C124.428 107.38 123.574 108.233 122.587 108.911Z" fill="#263238"/>
<path d="M215.377 126.047C213.783 115.372 210.595 100.492 206.745 97.4139C202.693 94.1834 188.015 83.3812 183.793 81.9737C179.57 80.5662 160.747 73.6389 157.322 75.6654C154.583 77.2933 157.932 84.5089 166.894 87.8836C174.763 90.8512 178.833 93.6493 181.088 94.5989C183.344 95.5486 188.965 102.9 187.498 106.198C186.65 108.14 181.046 110.438 177.535 108.92C174.025 107.402 173.084 100.441 169.056 97.2528C165.029 94.0647 157.991 94.5141 157.601 96.4049C157.211 98.2957 159.552 99.1691 163.223 105.596C165.589 109.725 165.851 119.697 171.185 126.794C173.864 130.355 178.578 139.868 178.578 139.868L215.377 126.047Z" fill="#F3A398"/>
<path d="M165.291 94.3451C164.003 94.1671 162.79 93.6326 161.789 92.8019C161.472 92.5148 161.229 92.1549 161.081 91.7532C160.934 91.3515 160.886 90.92 160.941 90.4957C160.948 90.1828 161.065 89.8824 161.272 89.6478C161.34 89.5969 161.272 89.5121 161.204 89.5799C161.107 89.7315 161 89.876 160.882 90.0124C160.804 90.1382 160.738 90.2717 160.687 90.4109C160.591 90.683 160.545 90.9702 160.551 91.2588C160.579 91.9137 160.83 92.5394 161.264 93.0309C161.78 93.5608 162.413 93.9631 163.112 94.206C163.811 94.4488 164.557 94.5255 165.291 94.4299C165.35 94.4469 165.35 94.3536 165.291 94.3451Z" fill="#263238"/>
<path d="M206.741 97.4188C203.282 92.1194 194.489 82.5976 185.84 79.384C179.998 77.2049 160.064 87.1762 160.692 91.0002C161.319 94.8242 164.736 94.7988 169.798 94.1374C171.638 93.9 181.363 90.2964 183.051 92.3229C185.476 95.2397 188.621 105.27 188.621 105.27L206.741 97.4188Z" fill="#F3A398"/>
<path d="M161.182 89.4829C163.615 85.3537 169.025 83.1068 174.426 81.3262C174.439 81.331 174.45 81.3397 174.458 81.351C174.466 81.3624 174.47 81.3759 174.47 81.3898C174.47 81.4036 174.466 81.4171 174.458 81.4285C174.45 81.4399 174.439 81.4485 174.426 81.4534C173.053 81.9112 164.251 86.0574 161.199 89.5423C161.207 89.5847 161.157 89.5168 161.182 89.4829Z" fill="#263238"/>
<path d="M206.735 97.4063C203.275 92.107 194.483 82.5851 185.834 79.3716C179.992 77.1925 164.272 89.8431 164.9 93.6671C165.527 97.4911 170.445 97.7455 175.854 95.7953C177.601 95.1679 183.485 90.9623 185.13 92.9888C187.555 95.9055 193.465 103.164 193.465 103.164L206.735 97.4063Z" fill="#F3A398"/>
<path d="M190.087 98.6537C189.528 97.8058 189.341 97.526 188.773 96.7035C188.205 95.881 187.62 95.0586 187.001 94.287C186.508 93.5581 185.891 92.921 185.178 92.4047C184.444 92.0008 183.599 91.846 182.77 91.9638C180.888 92.1588 179.2 93.3713 177.615 94.304C175.843 95.3469 172.154 97.0427 169.322 96.7713C168.541 96.7397 167.775 96.5432 167.075 96.1948C166.546 95.9572 166.083 95.5932 165.727 95.1349C164.472 93.066 165.982 90.6665 167.533 88.9622C170.433 85.7911 174.316 83.4763 178.14 81.5601C179.073 81.0937 180.014 80.6443 180.964 80.2034C182.009 79.626 183.165 79.2791 184.356 79.186C186.323 79.1436 189.57 81.1107 190.579 81.7296C190.655 81.772 190.715 81.6449 190.638 81.6025C189.417 80.8563 186.399 78.4313 183.219 78.6264C182.06 78.8129 180.944 79.2033 179.921 79.7795C178.819 80.2628 177.733 80.7885 176.657 81.3396C174.56 82.4002 172.548 83.619 170.637 84.9856C168.729 86.255 167.068 87.8611 165.736 89.7253C165.179 90.5563 164.858 91.5227 164.807 92.5217C164.757 93.5206 164.978 94.5146 165.447 95.3977C166.295 96.8307 168.186 97.1614 169.043 97.2546C169.873 97.3648 170.714 97.3648 171.544 97.2546C173.393 96.8163 175.209 96.2496 176.979 95.5589C178.675 94.8551 180.235 93.6765 181.998 93.1254C182.832 92.8384 183.744 92.887 184.542 93.261C185.27 93.7408 185.921 94.3267 186.475 94.9992C187.677 96.152 188.767 97.4153 189.731 98.7724C190.028 99.1454 190.291 99.0267 190.087 98.6537Z" fill="#263238"/>
<path d="M209.319 102.035C208.039 99.4917 205.826 89.071 203.774 85.8829C201.722 82.6948 192.387 71.6976 188.088 72.2233C182.687 72.8847 188.427 82.5761 191.302 86.5612C194.176 90.5464 193.769 97.3719 193.769 97.3719L209.319 102.035Z" fill="#F3A398"/>
<path d="M187.286 79.9962C188.303 81.2511 189.21 82.6501 190.101 84.0068C191.014 85.2659 191.836 86.5892 192.56 87.9664C193.166 89.3777 193.538 90.8783 193.662 92.4094C193.738 93.164 193.772 93.9102 193.789 94.6648C193.806 95.4195 193.73 96.3606 193.789 97.1492C193.789 97.234 193.653 97.2509 193.653 97.1492C193.534 95.6451 193.322 94.15 193.017 92.6723C192.736 91.1366 192.266 89.6415 191.618 88.2208C190.321 85.3973 188.447 82.896 187.125 80.0895C187.048 79.9369 187.209 79.8605 187.286 79.9962Z" fill="#263238"/>
<path d="M193.691 98.5137C194.065 101.108 193.318 103.737 192.386 106.145C191.908 107.361 191.342 108.54 190.69 109.672C190.027 110.791 189.29 111.864 188.485 112.886C186.935 114.832 185.636 116.966 184.619 119.236C183.658 121.571 182.986 124.014 182.618 126.511C182.401 123.917 182.689 121.305 183.466 118.821C184.31 116.335 185.569 114.01 187.188 111.944C188.729 109.978 190.065 107.858 191.173 105.619C192.284 103.355 193.403 101.066 193.691 98.5137Z" fill="#263238"/>
<path d="M206.838 187.546C196.29 186.121 189.397 168.485 177.357 137.52C175.237 132.076 202.794 98.6098 206.541 103.604C211.264 109.895 223.983 144.922 225.314 154.478C227.951 173.267 219.15 189.208 206.838 187.546Z" fill="#F3A398"/>
<path d="M183.714 154.766L217.706 121.74C217.706 121.74 227.364 150.162 226.456 162.075C225.549 173.988 221.369 187.562 207.056 188.309C196.322 188.868 183.714 154.766 183.714 154.766Z" fill="#009247"/>
<path d="M194.711 177.627C193.482 175.889 192.388 174.066 191.32 172.234C190.251 170.403 189.268 168.529 188.309 166.638C187.351 164.747 186.47 162.806 185.689 160.83C184.854 158.871 184.193 156.843 183.714 154.768C184.613 156.692 185.562 158.575 186.52 160.457L189.378 166.104C190.302 168.003 191.243 169.894 192.125 171.81C193.007 173.727 193.914 175.651 194.711 177.627Z" fill="#263238"/>
<path d="M191.027 160.541C192.672 158.726 194.486 157.047 196.233 155.343C197.979 153.639 199.76 151.951 201.558 150.256C205.136 146.915 208.745 143.602 212.385 140.318C213.386 139.419 214.389 138.529 215.395 137.647C216.481 136.706 217.685 135.901 218.787 134.951C218.805 134.942 218.826 134.939 218.846 134.943C218.867 134.947 218.885 134.958 218.898 134.973C218.912 134.989 218.92 135.008 218.921 135.029C218.923 135.049 218.917 135.07 218.906 135.087C218.058 135.935 217.286 136.876 216.438 137.732C215.59 138.589 214.658 139.487 213.75 140.352C211.981 142.048 210.2 143.73 208.409 145.397C204.822 148.738 201.227 152.07 197.539 155.301C195.453 157.124 193.409 159.023 191.222 160.719C191.198 160.744 191.165 160.76 191.13 160.762C191.095 160.763 191.061 160.751 191.035 160.727C191.009 160.704 190.994 160.671 190.992 160.636C190.991 160.601 191.003 160.566 191.027 160.541Z" fill="#263238"/>
<path d="M130.382 77.4487C130.628 79.1445 137.793 91.0998 147.289 90.5233C152.775 90.1672 149.044 79.1445 149.044 79.1445L153.818 64.0859L135.614 50.1719C135.614 50.1719 130.289 76.711 130.382 77.4487Z" fill="#F3A398"/>
<path d="M133.663 60.1105C134.882 64.0588 136.901 67.7139 139.594 70.8486C142.287 73.9833 145.596 76.5305 149.315 78.3318L153.826 64.121L135.613 50.207C135.613 50.207 134.731 54.6754 133.663 60.1105Z" fill="#263238"/>
<path d="M175.277 42.9751C175.819 68.8359 160.388 72.0834 154.808 72.1936C149.721 72.2953 132.492 71.9901 129.278 46.3158C126.065 20.6415 137.927 12.2134 149.492 11.374C161.057 10.5346 174.742 17.1058 175.277 42.9751Z" fill="#F3A398"/>
<path d="M169.229 40.8985C168.656 40.7636 168.09 40.5994 167.534 40.4068C166.89 40.3215 166.293 40.023 165.838 39.5589C165.726 39.3894 165.673 39.1874 165.689 38.9848C165.704 38.7821 165.786 38.5904 165.923 38.4397C166.236 38.1822 166.613 38.0127 167.014 37.9486C167.414 37.8846 167.825 37.9282 168.203 38.0751C169.018 38.258 169.737 38.735 170.221 39.4147C170.319 39.5749 170.369 39.7598 170.365 39.9474C170.361 40.135 170.304 40.3175 170.199 40.4735C170.095 40.6295 169.948 40.7524 169.777 40.8277C169.605 40.903 169.415 40.9276 169.229 40.8985Z" fill="#263238"/>
<path d="M151.484 40.1368C152.079 40.0888 152.671 40.0067 153.256 39.891C153.893 39.8985 154.514 39.6925 155.02 39.3059C155.156 39.1552 155.238 38.9634 155.254 38.7608C155.269 38.5582 155.217 38.3562 155.105 38.1867C154.833 37.8834 154.486 37.6588 154.098 37.5365C153.71 37.4141 153.296 37.3986 152.9 37.4914C152.067 37.5427 151.285 37.9096 150.712 38.5174C150.59 38.6619 150.512 38.8387 150.487 39.0266C150.463 39.2145 150.493 39.4055 150.575 39.5766C150.656 39.7476 150.785 39.8915 150.947 39.9909C151.108 40.0903 151.295 40.141 151.484 40.1368Z" fill="#263238"/>
<path d="M154.707 46.9259C154.707 46.858 154.571 47.0022 154.563 47.0785C154.563 48.8336 154.198 50.8516 152.579 51.318C152.528 51.318 152.528 51.4197 152.579 51.4197C154.546 51.2586 154.961 48.6217 154.707 46.9259Z" fill="#263238"/>
<path d="M153.226 44.9895C150.411 44.6249 149.894 50.2973 152.506 50.628C155.117 50.9587 155.592 45.2863 153.226 44.9895Z" fill="#263238"/>
<path d="M152.085 45.2336C151.559 45.5134 151.025 46.0307 150.389 46.0815C149.753 46.1324 149.219 45.4456 148.82 44.8351C148.778 44.7758 148.727 44.8351 148.718 44.8945C148.608 45.9798 148.922 47.1245 150.075 47.3958C151.228 47.6671 151.966 46.7429 152.339 45.7C152.441 45.3947 152.297 45.081 152.085 45.2336Z" fill="#263238"/>
<path d="M165.338 47.086C165.338 47.0182 165.465 47.1878 165.457 47.2556C165.228 49.0023 165.262 51.0457 166.797 51.7834C166.839 51.7834 166.797 51.8936 166.797 51.8766C164.855 51.4188 164.838 48.7055 165.338 47.086Z" fill="#263238"/>
<path d="M167.072 45.389C169.912 45.4568 169.615 51.1293 166.944 51.0784C164.273 51.0275 164.689 45.3381 167.072 45.389Z" fill="#263238"/>
<path d="M168.247 45.8573C168.679 46.1795 169.095 46.756 169.62 46.8239C170.146 46.8917 170.74 46.3066 171.172 45.747C171.215 45.6877 171.257 45.747 171.257 45.8149C171.257 46.9002 170.791 48.0109 169.739 48.1551C168.688 48.2992 168.128 47.3072 167.933 46.2219C167.899 46.0184 168.043 45.7216 168.247 45.8573Z" fill="#263238"/>
<path d="M154.67 60.4469C155.035 60.9133 155.374 61.5323 156.001 61.6679C156.651 61.7446 157.31 61.6839 157.935 61.4899C157.994 61.4899 158.045 61.5407 158.002 61.5831C157.706 61.8934 157.331 62.1178 156.918 62.2327C156.504 62.3476 156.068 62.3488 155.654 62.236C155.307 62.0962 155.009 61.8561 154.799 61.5466C154.59 61.237 154.477 60.8719 154.475 60.4978C154.475 60.3961 154.619 60.3791 154.67 60.4469Z" fill="#263238"/>
<path d="M162.523 54.6613C162.523 54.6613 162.684 57.3067 162.583 58.5447C162.583 58.6634 162.269 58.6973 161.854 58.6888H161.803C160.725 58.7957 159.639 58.6057 158.661 58.1394C157.684 57.6731 156.852 56.9482 156.257 56.0433C156.181 55.9162 156.351 55.7975 156.452 55.8823C157.948 57.0846 159.792 57.7716 161.709 57.8409C161.82 57.5102 161.285 53.3131 161.489 53.3131C162.442 53.4695 163.369 53.7548 164.245 54.161C164.084 48.6242 163.024 43.1384 162.947 37.6525C162.939 37.6098 162.949 37.5656 162.974 37.5299C162.998 37.4941 163.036 37.4696 163.079 37.4617C163.121 37.4538 163.166 37.4632 163.201 37.4879C163.237 37.5125 163.262 37.5504 163.27 37.5931C164.779 43.2401 165.109 49.6078 165.432 55.3142C165.508 56.0349 163.007 54.9072 162.523 54.6613Z" fill="#263238"/>
<path d="M129.889 45.7389C136.257 46.5868 141.386 27.4413 141.988 25.0842C141.692 26.5934 140.114 34.5637 140.666 34.9876C141.345 35.1035 142.038 35.1035 142.717 34.9876C142.884 34.0299 143.122 33.0861 143.43 32.1641C143.557 31.7317 143.43 33.1561 143.43 34.9282C143.803 34.9282 144.21 34.835 144.651 34.8011C144.929 32.742 145.479 30.729 146.287 28.8149C146.601 28.0942 146.228 31.5282 146.448 34.623C151.01 34.1821 157.581 33.7073 163.508 34.5043C165.102 34.7163 166.459 34.9622 167.654 35.225C168.061 32.8679 168.214 30.2987 168.299 30.8753C168.529 32.3814 168.611 33.9064 168.544 35.4285C169.189 35.5811 169.782 35.7253 170.317 35.8694C171.046 32.5626 170.359 26.958 170.757 27.8653C171.918 30.6482 172.539 33.6262 172.589 36.641C174.793 37.4889 175.345 38.0146 175.514 37.438C175.802 36.3866 176.082 26.8224 169.96 18.7334C163.313 9.94922 147.847 5.4045 137.011 15.3418C137.011 15.3418 128.871 18.8861 126.412 26.3645C123.954 33.8429 126.2 45.2387 129.889 45.7389Z" fill="#263238"/>
<path d="M133.678 46.4575C133.678 46.4575 128.591 38.0294 124.783 39.8015C120.976 41.5736 124.461 53.5289 128.65 55.4113C129.171 55.689 129.742 55.8585 130.33 55.9095C130.918 55.9606 131.51 55.8922 132.071 55.7084C132.632 55.5247 133.15 55.2293 133.593 54.8402C134.037 54.4511 134.398 53.9762 134.653 53.4441L133.678 46.4575Z" fill="#F3A398"/>
<path d="M125.852 43.2012C125.841 43.2056 125.832 43.2132 125.825 43.223C125.818 43.2328 125.815 43.2444 125.815 43.2563C125.815 43.2682 125.818 43.2797 125.825 43.2896C125.832 43.2994 125.841 43.307 125.852 43.3114C128.786 44.7359 130.185 47.6272 131.109 50.5948C130.261 49.4247 129.108 48.7295 127.548 49.6961C127.463 49.7469 127.548 49.8741 127.616 49.8656C128.155 49.7316 128.723 49.7681 129.241 49.97C129.759 50.172 130.201 50.5295 130.507 50.9933C131.013 51.7754 131.437 52.608 131.771 53.4777C131.889 53.7575 132.39 53.6473 132.305 53.3335C132.301 53.3083 132.301 53.2825 132.305 53.2572C132.576 49.4671 129.948 43.8625 125.852 43.2012Z" fill="#263238"/>
<path d="M156.094 89.6056L141.748 133.968C141.179 135.256 141.748 136.376 143.079 136.46L166.354 137.987C167.068 137.98 167.765 137.77 168.366 137.383C168.966 136.996 169.444 136.447 169.745 135.799L184.066 91.4371C184.634 90.1398 184.066 89.0206 182.743 88.8934L159.469 87.3672C158.752 87.381 158.053 87.5989 157.456 87.9953C156.858 88.3918 156.386 88.9504 156.094 89.6056Z" fill="#37474F"/>
<path d="M158.862 89.752L144.542 134.114C143.973 135.411 144.542 136.53 145.873 136.615L169.147 138.141C169.862 138.134 170.559 137.925 171.16 137.538C171.76 137.151 172.238 136.602 172.539 135.954L186.86 91.5835C187.428 90.2947 186.86 89.1755 185.537 89.0907L162.263 87.5645C161.546 87.5679 160.846 87.7756 160.244 88.1631C159.642 88.5506 159.162 89.1018 158.862 89.752Z" fill="#455A64"/>
<path d="M165.118 92.2307C165.084 92.6218 164.936 92.9942 164.691 93.3008C164.446 93.6075 164.115 93.8345 163.741 93.9533C163.367 94.0721 162.966 94.0772 162.589 93.968C162.212 93.8589 161.876 93.6403 161.623 93.34C161.37 93.0398 161.212 92.6713 161.169 92.2811C161.126 91.891 161.199 91.4968 161.38 91.1484C161.56 90.8 161.841 90.513 162.184 90.3238C162.528 90.1346 162.921 90.0517 163.312 90.0855C163.836 90.1308 164.32 90.3822 164.659 90.7844C164.997 91.1866 165.162 91.7068 165.118 92.2307Z" fill="#263238"/>
<path d="M67.7966 188.445C77.9714 189.844 90.6305 181.95 123.486 157.963C128.031 154.648 113.235 116.263 108.224 119.553C101.882 123.708 78.1579 141.183 76.5893 142.684C63.2943 155.309 60.9032 187.495 67.7966 188.445Z" fill="#F3A398"/>
<path d="M96.4678 131.155C96.4678 131.155 105.795 118.029 112.875 112.654C122.32 105.455 133.436 103.123 138.15 102.428C147.994 100.978 172.804 104.285 173.101 111.594C173.372 118.216 148.181 113.561 148.181 113.561C148.181 113.561 174.644 114.07 173.508 122.099C172.371 130.129 143.458 123.057 143.458 123.057C143.458 123.057 170.642 124.185 168.157 132.282C166.275 138.396 139.711 133.469 139.711 133.469C139.711 133.469 163.062 134.606 161.4 140.982C159.56 148.019 134.759 145.009 134.759 145.009C127.806 160.5 117.801 164.859 110.585 167.267C108.796 167.852 96.4678 131.155 96.4678 131.155Z" fill="#F3A398"/>
<path d="M139.03 112.803C142.141 112.743 145.287 112.675 148.357 112.896C151.426 113.116 154.563 113.456 157.632 113.964C161.659 114.556 165.605 115.606 169.393 117.093C162.474 114.948 151.375 113.973 148.272 113.744C145.168 113.515 142.082 113.142 138.945 112.896C138.936 112.913 138.953 112.803 139.03 112.803Z" fill="#263238"/>
<path d="M138.013 124C141.99 124.11 145.941 124.068 149.883 124.348C153.826 124.627 157.557 125.238 161.483 125.789C161.779 125.831 161.661 125.976 161.356 125.942C157.413 125.552 153.724 125.492 149.79 125.145C145.856 124.797 141.913 124.297 137.971 124.093C137.945 124.093 137.954 124 138.013 124Z" fill="#263238"/>
<path d="M135.432 133.4C141.52 133.248 147.617 134.248 153.586 135.317C153.883 135.376 153.705 135.545 153.399 135.512C147.371 134.757 142.657 134.129 135.441 133.612C135.322 133.638 135.305 133.4 135.432 133.4Z" fill="#263238"/>
<path d="M96.4514 125.936L109.399 173.113C109.399 173.113 74.635 193.555 67.004 188.154C59.3729 182.753 64.3416 155.502 73.0664 145.115C76.6445 140.782 96.4514 125.936 96.4514 125.936Z" fill="#009247"/>
<path d="M96.8943 127.489L96.3855 125.937L96.5127 125.988C93.2314 128.667 89.9415 131.321 86.6941 134.026C83.4466 136.731 80.1907 139.427 77.1044 142.285C75.5404 143.669 74.0676 145.153 72.6953 146.727C71.3822 148.348 70.2107 150.079 69.1935 151.9C67.1764 155.609 65.7626 159.616 65.0049 163.77C65.3395 159.504 66.4909 155.341 68.3965 151.51C69.3539 149.583 70.5136 147.764 71.8559 146.083C73.2366 144.441 74.7236 142.892 76.3073 141.445C79.453 138.588 82.7514 135.908 86.0921 133.305C89.4328 130.702 92.8752 128.218 96.4195 125.886L96.5212 125.818V125.929L96.8943 127.489Z" fill="#263238"/>
<path d="M88.8576 137.666C89.6462 139.981 90.2482 142.372 90.9011 144.729C91.5539 147.086 92.1899 149.46 92.7919 151.843C93.9959 156.591 95.1745 161.348 96.2852 166.121C96.5904 167.427 96.8957 168.733 97.1331 170.047C97.3705 171.361 97.5655 172.888 97.8792 174.287C97.882 174.298 97.8826 174.309 97.8809 174.321C97.8792 174.332 97.8753 174.343 97.8694 174.353C97.8575 174.373 97.8381 174.387 97.8157 174.393C97.7932 174.398 97.7694 174.395 97.7495 174.383C97.7296 174.371 97.7153 174.352 97.7097 174.329C97.3959 173.167 96.9126 172.048 96.5735 170.887C96.2343 169.725 95.8867 168.487 95.573 167.275C94.9455 164.906 94.3294 162.535 93.7246 160.161C92.5121 155.413 91.325 150.656 90.2736 145.865C89.6801 143.169 89.0018 140.456 88.5778 137.725C88.5739 137.707 88.5737 137.688 88.5771 137.67C88.5805 137.651 88.5876 137.634 88.5978 137.618C88.608 137.602 88.6213 137.588 88.6368 137.578C88.6522 137.567 88.6697 137.56 88.688 137.556C88.7064 137.552 88.7254 137.552 88.7438 137.555C88.7623 137.559 88.7799 137.566 88.7957 137.576C88.8114 137.586 88.825 137.599 88.8356 137.615C88.8463 137.63 88.8537 137.648 88.8576 137.666Z" fill="#263238"/>
<path d="M109.414 173.116C109.643 173.557 109.626 173.184 109.575 172.913C109.524 172.641 108.99 170.369 108.49 168.927C108.439 168.783 108.219 168.529 108.303 169.046C108.601 170.422 108.972 171.78 109.414 173.116Z" fill="#263238"/>
</svg>
