<svg width="1205" height="323" viewBox="0 0 1205 323" fill="none" xmlns="http://www.w3.org/2000/svg">
<path fill-rule="evenodd" clip-rule="evenodd" d="M24 24C24 15.5992 24 11.3988 25.6349 8.19014C27.073 5.36771 29.3677 3.073 32.1901 1.6349C35.3988 0 39.5992 0 48 0H1151C1159.4 0 1163.6 0 1166.81 1.6349C1169.63 3.073 1171.93 5.36771 1173.37 8.19014C1175 11.3988 1175 15.5992 1175 24V299C1175 307.401 1175 311.601 1173.37 314.81C1171.93 317.632 1169.63 319.927 1166.81 321.365C1163.6 323 1159.4 323 1151 323H48C39.5992 323 35.3988 323 32.1901 321.365C29.3677 319.927 27.073 317.632 25.6349 314.81C24 311.601 24 307.401 24 299V24Z" fill="#009247"/>
<path d="M580 265C580 281.491 566.423 295 549.5 295C532.577 295 519 281.491 519 265C519 248.509 532.577 235 549.5 235C566.423 235 580 248.509 580 265Z" stroke="#54B435" stroke-opacity="0.5" stroke-width="12"/>
<path d="M719 147.5C719 155.931 711.967 163 703 163C694.033 163 687 155.931 687 147.5C687 139.069 694.033 132 703 132C711.967 132 719 139.069 719 147.5Z" stroke="#54B435" stroke-opacity="0.5" stroke-width="12"/>
<circle cx="871.5" cy="45.5" r="15.5" stroke="#54B435" stroke-opacity="0.5" stroke-width="12"/>
<circle cx="76" cy="247" r="64" stroke="white" stroke-opacity="0.05" stroke-width="24"/>
<path d="M112 84.5C112 97.384 101.35 108 88 108C74.6497 108 64 97.384 64 84.5C64 71.616 74.6497 61 88 61C101.35 61 112 71.616 112 84.5Z" stroke="#54B435" stroke-opacity="0.5" stroke-width="12"/>
<path d="M594.5 89.5C594.5 123.27 567.333 150.5 534 150.5C500.667 150.5 473.5 123.27 473.5 89.5C473.5 55.73 500.667 28.5 534 28.5C567.333 28.5 594.5 55.73 594.5 89.5Z" stroke="white" stroke-opacity="0.05" stroke-width="25"/>
<path d="M1232.5 189C1232.5 243.9 1187.78 288.5 1132.5 288.5C1077.22 288.5 1032.5 243.9 1032.5 189C1032.5 134.1 1077.22 89.5 1132.5 89.5C1187.78 89.5 1232.5 134.1 1232.5 189Z" stroke="white" stroke-opacity="0.05" stroke-width="25"/>
</svg>
